<svg width="1366" height="211" viewBox="0 0 1366 211" fill="none" xmlns="http://www.w3.org/2000/svg">
<path d="M0 182.4L45.5333 187.435C91.0667 192.85 182.133 202.35 273.2 207.765C364.267 212.8 455.333 212.8 546.4 192.565C637.467 171.95 728.533 132.05 819.6 116.565C910.667 101.65 1001.73 111.15 1092.8 106.4C1183.87 101.65 1274.93 80.75 1320.47 70.965L1366 60.8V0H1320.47C1274.93 0 1183.87 0 1092.8 0C1001.73 0 910.667 0 819.6 0C728.533 0 637.467 0 546.4 0C455.333 0 364.267 0 273.2 0C182.133 0 91.0667 0 45.5333 0H0V182.4Z" fill="#ECEFF4"/>
</svg>
